<svg width="1600" height="900" viewBox="0 0 1600 900" fill="none" xmlns="http://www.w3.org/2000/svg">
  <rect width="1600" height="900" fill="#131313"/>
  <rect width="1600" height="900" fill="url(#bg)"/>
  <path d="M0 580L140 520L310 610L460 470L640 560L770 450L980 620L1120 510L1320 620L1450 540L1600 620V900H0V580Z" fill="#6A2E0C"/>
  <path d="M0 700L120 650L300 720L470 610L650 690L820 580L980 710L1140 630L1340 740L1490 680L1600 720V900H0V700Z" fill="#A84F13"/>
  <path d="M0 800L180 760L340 785L510 700L700 780L870 680L1050 760L1210 720L1410 795L1600 750V900H0V800Z" fill="#FF7A18" fill-opacity="0.3"/>
  <circle cx="1320" cy="175" r="90" fill="#FF7A18" fill-opacity="0.15"/>
  <path d="M0 150H1600" stroke="white" stroke-opacity="0.04" stroke-width="2"/>
  <path d="M0 230H1600" stroke="white" stroke-opacity="0.04" stroke-width="2"/>
  <defs>
    <linearGradient id="bg" x1="0" y1="0" x2="1600" y2="900" gradientUnits="userSpaceOnUse">
      <stop stop-color="#131313"/>
      <stop offset="0.48" stop-color="#24170F"/>
      <stop offset="1" stop-color="#4A2108"/>
    </linearGradient>
  </defs>
</svg>
